<?xml version="1.0" encoding="utf-8"?>
<!-- Generator: Adobe Illustrator 24.2.1, SVG Export Plug-In . SVG Version: 6.00 Build 0)  -->
<svg version="1.1" id="Capa_1" xmlns="http://www.w3.org/2000/svg" xmlns:xlink="http://www.w3.org/1999/xlink" x="0px" y="0px"
	 viewBox="0 0 167.48 128.45" style="enable-background:new 0 0 167.48 128.45;" xml:space="preserve">
<style type="text/css">
	.st0{fill:#CACAC9;}
	.st1{fill:#80CCDD;}
</style>
<g>
	<g>
		<path class="st0" d="M96.07,17.47c1.3,0.04,2.21,0.64,2.95,1.63c2.91,3.92,5.84,7.82,8.75,11.74c2.57,3.44,5.17,6.85,7.68,10.33
			c1.63,2.26,4.31,1.72,5.57-0.11c5.03-7.28,10.19-14.48,15.3-21.7c1.15-1.62,2.69-2.18,4.49-1.63c2.2,0.67,3.72,2.35,3.66,4.26
			c-0.02,0.64-0.28,1.37-0.67,1.89c-6.16,8.31-12.36,16.6-18.55,24.89c-1.07,1.43-1.1,2.76-0.04,4.19
			c5.2,6.98,10.41,13.96,15.61,20.93c1.79,2.4,3.47,4.88,5.39,7.17c1.65,1.96,0.92,4.37-0.89,5.69c-1.88,1.36-4.83,1.59-6.64-1
			c-5.26-7.48-10.62-14.89-15.95-22.33c-0.64-0.9-1.29-1.79-1.94-2.69c-1.38-1.92-3.82-1.97-5.21-0.06
			c-2.45,3.37-4.87,6.77-7.31,10.15c-3.71,5.16-7.41,10.31-11.13,15.46c-1.2,1.66-3.51,1.97-5.56,0.77
			c-0.98-0.57-1.75-1.34-2.15-2.43c-0.48-1.29-0.11-2.43,0.66-3.46c4.34-5.85,8.7-11.68,13.06-17.52c2.67-3.58,5.34-7.16,7.99-10.74
			c0.93-1.26,0.9-2.64-0.1-3.94c-2.3-3.02-4.62-6.04-6.92-9.05c-3.98-5.2-7.94-10.41-11.94-15.59c-2.11-2.73-0.25-5.41,2.06-6.35
			C94.82,17.73,95.46,17.63,96.07,17.47z"/>
		<path class="st0" d="M81.27,56.99c-0.52,2.46-0.91,4.85-1.54,7.18c-1.11,4.11-2.92,7.91-5.59,11.26
			c-3.73,4.68-8.53,7.73-14.29,9.28c-3.34,0.9-6.74,1.22-10.18,1.21c-4.93-0.02-9.86,0.02-14.79-0.01
			c-1.19-0.01-2.41-0.09-3.57-0.34c-3.55-0.77-5.28-3.2-5.52-6.8c-0.21-3.13-0.14-6.28-0.19-9.42c-0.02-1.1,0.03-2.21-0.03-3.31
			c-0.02-0.28-0.3-0.68-0.56-0.79c-4.28-1.73-7.22-4.74-8.63-9.15c-2.32-7.23,1.54-15.14,8.6-17.69c0.53-0.19,0.63-0.51,0.62-1
			c-0.01-3.73-0.05-7.47,0.03-11.2c0.03-1.39,0.19-2.8,0.52-4.15c0.85-3.39,3.46-5.06,6.72-5.1c6.89-0.09,13.79-0.26,20.67,0.03
			c8.01,0.34,15.04,3.24,20.41,9.47c2.55,2.96,4.39,6.34,5.47,10.08c0.75,2.61,1.18,5.3,1.76,7.96c0.1,0.46-0.1,0.62-0.55,0.62
			c-2.53-0.01-5.05-0.02-7.58,0c-0.65,0.01-0.67-0.41-0.73-0.86c-0.46-3.48-1.4-6.82-3.13-9.9c-2.78-4.94-6.97-8.05-12.49-9.21
			c-2.14-0.45-4.36-0.67-6.55-0.72c-4.31-0.11-8.63-0.04-12.95-0.03c-2.16,0-3.2,1.04-3.21,3.2c-0.01,3.19,0.02,6.38-0.01,9.58
			c-0.01,0.66,0.24,0.94,0.82,1.17c5.3,2.06,8.42,5.93,9.28,11.54c1.01,6.53-3.02,13.16-9.23,15.32c-0.67,0.23-0.89,0.56-0.88,1.27
			c0.04,2.87,0.01,5.75,0.02,8.62c0,1.11,0.17,2.19,1.3,2.76c0.4,0.2,0.88,0.34,1.33,0.34c4.95,0.02,9.92,0.2,14.86-0.04
			c8.94-0.44,15.28-4.81,18.76-13.16c0.97-2.32,1.62-4.73,1.95-7.22c0.09-0.66,0.33-0.9,1.02-0.89c2.38,0.04,4.76,0.02,7.14,0.02
			C80.59,56.94,80.83,56.96,81.27,56.99z M29.95,64.85c7.2-0.01,13-5.82,13-13.01c0-7.22-5.81-13.1-12.94-13.09
			c-7.26,0.01-13.04,5.83-13.03,13.13C16.98,59.02,22.83,64.86,29.95,64.85z"/>
		<path class="st0" d="M90.77,109.39c-1.16,1.18-2.44,1.54-3.91,1.48c-2.55-0.1-4.58-1.76-5.21-4.48c-0.54-2.32-0.41-4.59,0.86-6.68
			c2.05-3.36,7.41-3.39,9.27-0.07c0.45,0.8,0.18,1.47-0.6,1.4c-0.26-0.02-0.63-0.24-0.74-0.48c-0.78-1.56-2.06-2.09-3.71-1.91
			c-1.57,0.17-2.63,1.07-3.18,2.5c-0.83,2.16-0.83,4.33,0.31,6.4c1.17,2.13,4.33,2.59,6.03,0.93c0.69-0.68,0.96-1.51,0.95-2.46
			c0-0.47-0.23-0.67-0.67-0.67c-0.61-0.01-1.23-0.01-1.84-0.02c-0.44-0.01-0.78-0.16-0.79-0.67c-0.01-0.54,0.32-0.73,0.8-0.74
			c0.91-0.01,1.81-0.03,2.72,0c0.73,0.03,1.15,0.43,1.16,1.17c0.04,1.67,0.02,3.34,0.02,5.01c0,0.44-0.19,0.77-0.7,0.75
			c-0.47-0.02-0.71-0.26-0.71-0.75C90.85,109.92,90.81,109.75,90.77,109.39z"/>
		<path class="st0" d="M54.33,104.01c0-1.59-0.01-3.19,0-4.78c0.01-1.26,0.49-1.76,1.72-1.78c2.03-0.02,4.07-0.01,6.1-0.01
			c0.49,0,0.9,0.12,0.9,0.71c0,0.59-0.39,0.71-0.9,0.71c-1.76-0.01-3.53,0-5.29,0.01c-0.86,0-0.98,0.13-0.98,0.98
			c-0.01,0.81,0.03,1.62-0.02,2.43c-0.03,0.63,0.23,0.81,0.82,0.79c1.54-0.03,3.09-0.01,4.63-0.01c0.5,0,1,0.05,0.98,0.7
			c-0.02,0.62-0.51,0.69-1.01,0.68c-1.52-0.01-3.04,0.02-4.56-0.01c-0.62-0.01-0.89,0.15-0.86,0.82c0.05,0.95,0.01,1.91,0.01,2.87
			c0.01,1.02,0.09,1.1,1.08,1.11c1.69,0,3.38,0,5.07,0c0.22,0,0.49-0.06,0.65,0.05c0.23,0.16,0.53,0.46,0.5,0.67
			c-0.03,0.25-0.37,0.64-0.58,0.65c-2.35,0.04-4.7,0.05-7.05,0c-0.74-0.01-1.2-0.66-1.21-1.58
			C54.32,107.35,54.33,105.68,54.33,104.01z"/>
		<path class="st0" d="M118.23,99.02c-0.49,1.28-0.94,2.45-1.39,3.64c-0.92,2.46-1.84,4.91-2.75,7.37
			c-0.22,0.58-0.56,0.86-1.18,0.61c-0.6-0.25-0.5-0.71-0.32-1.18c1.48-3.74,2.96-7.47,4.45-11.21c0.22-0.55,0.57-0.89,1.2-0.9
			c0.68-0.01,1.03,0.4,1.25,0.95c0.88,2.21,1.75,4.42,2.62,6.63c0.58,1.46,1.16,2.91,1.73,4.38c0.19,0.49,0.51,1.04-0.26,1.36
			c-0.59,0.24-0.96-0.01-1.26-0.84c-1.28-3.44-2.56-6.89-3.85-10.33C118.42,99.36,118.34,99.24,118.23,99.02z"/>
		<path class="st0" d="M26.07,103.61c0-1.74-0.02-3.48,0.02-5.22c0.01-0.32,0.17-0.76,0.42-0.93c0.57-0.4,1.13,0.04,1.14,0.86
			c0.01,2.77,0,5.54,0.01,8.31c0,0.51-0.01,1.03,0,1.54c0.01,0.82,0.18,1,0.99,1.01c1.69,0.01,3.38,0.01,5.07,0.01
			c0.22,0,0.5-0.07,0.65,0.04c0.24,0.17,0.56,0.47,0.55,0.71c-0.01,0.24-0.38,0.65-0.59,0.65c-2.35,0.04-4.7,0.06-7.05-0.02
			c-0.37-0.01-0.9-0.55-1.03-0.95c-0.2-0.63-0.16-1.35-0.17-2.04C26.06,106.26,26.07,104.93,26.07,103.61z"/>
		<path class="st0" d="M141.37,103.61c0-1.77,0-3.53,0-5.3c0-0.57,0.17-0.97,0.82-0.96c0.62,0.01,0.75,0.42,0.75,0.95
			c-0.01,2.26,0,4.51,0,6.77c0,1.03-0.01,2.06,0,3.09c0.01,0.85,0.18,1.02,1.05,1.02c1.79,0.01,3.58,0.01,5.36,0.01
			c0.46,0,0.85,0.1,0.86,0.67c0.01,0.47-0.2,0.76-0.69,0.76c-2.3,0-4.6,0.02-6.9-0.02c-0.78-0.01-1.22-0.6-1.24-1.54
			C141.37,107.24,141.38,105.43,141.37,103.61C141.38,103.61,141.38,103.61,141.37,103.61z"/>
	</g>
	<path class="st1" d="M24.56,51.6c-0.04-2.86,2.25-5.2,5.13-5.24c2.89-0.04,5.28,2.29,5.29,5.18c0.01,2.91-2.29,5.26-5.19,5.29
		C26.91,56.85,24.59,54.54,24.56,51.6z"/>
	<path class="st1" d="M30.02,66.11c-8,0-14.5-6.5-14.5-14.5s6.5-14.5,14.5-14.5s14.5,6.5,14.5,14.5S38.01,66.11,30.02,66.11z
		 M30.02,39.11c-6.89,0-12.5,5.61-12.5,12.5s5.61,12.5,12.5,12.5s12.5-5.61,12.5-12.5S36.91,39.11,30.02,39.11z"/>
</g>
</svg>
